<svg width="134" height="110" viewBox="0 0 134 110" fill="none" xmlns="http://www.w3.org/2000/svg">
<path d="M104.58 82.2212C95.9783 63.9323 92.2365 59.1968 85.0011 50.5463C80.5567 45.2329 73.9907 42.0986 67.0636 42.0986C60.0419 42.0986 53.427 45.3437 48.8538 50.672C41.1915 59.5996 36.2621 64.8594 29.0082 81.8932C27.4403 85.5749 27.2524 89.7029 28.3451 93.5525C30.9102 102.589 39.9345 108.187 49.17 106.469L51.5854 106.02C53.447 105.674 55.2529 105.076 56.9535 104.243L58.1581 103.653C64.2615 100.664 71.453 100.912 77.3359 104.315L77.4996 104.41C79.6008 105.625 81.9116 106.435 84.3117 106.798L85.8986 107.037C95.0782 108.424 103.766 102.472 105.787 93.4105C106.625 89.6511 106.219 85.7067 104.58 82.2212Z" fill="#C8A584"/>
<path d="M2.68832 54.4779C3.95504 63.7703 9.87732 70.8692 17.1266 69.881C28.3657 67.2453 33.2735 57.4229 28.1114 48.6398C21.8789 38.0356 16.8128 33.559 10.7561 33.3445C4.69953 33.1299 1.42161 45.1856 2.68832 54.4779Z" fill="#C8A584"/>
<path d="M130.378 54.4779C129.111 63.7703 123.189 70.8692 115.94 69.881C104.701 67.2453 99.7929 57.4229 104.955 48.6398C111.187 38.0356 116.254 33.559 122.31 33.3445C128.367 33.1299 131.645 45.1856 130.378 54.4779Z" fill="#C8A584"/>
<path d="M32.8824 21.8686C32.4002 32.0873 35.7538 40.8003 45.1339 41.243C59.9119 41.9404 63.3314 33.2703 60.9178 20.6245C58.0486 5.59176 54.0961 -0.0398563 45.5599 0.789864C37.0236 1.61958 33.3647 11.65 32.8824 21.8686Z" fill="#C8A584"/>
<path d="M101.868 21.8686C102.35 32.0873 98.9962 40.8003 89.6161 41.243C74.8381 41.9404 71.4186 33.2703 73.8322 20.6245C76.7014 5.59176 80.6539 -0.0398563 89.1901 0.789864C97.7264 1.61958 101.385 11.65 101.868 21.8686Z" fill="#C8A584"/>
</svg>
